<?xml version="1.0" standalone="no"?>
<!DOCTYPE svg PUBLIC "-//W3C//DTD SVG 20010904//EN"
 "http://www.w3.org/TR/2001/REC-SVG-20010904/DTD/svg10.dtd">
<svg version="1.0" xmlns="http://www.w3.org/2000/svg"
 width="512.000000pt" height="512.000000pt" viewBox="0 0 512.000000 512.000000"
 preserveAspectRatio="xMidYMid meet">
<metadata>
Created by potrace 1.11, written by Peter Selinger 2001-2013
</metadata>
<g transform="translate(0.000000,512.000000) scale(0.100000,-0.100000)"
fill="#000000" stroke="none">
<path d="M3687 4108 c-313 -315 -573 -583 -578 -595 -11 -28 7 -80 31 -93 10
-6 32 -10 48 -10 26 0 93 63 513 486 266 267 503 505 525 528 23 22 52 51 66
63 l24 23 94 -26 c93 -25 97 -27 168 -97 61 -60 75 -81 88 -127 9 -30 22 -75
30 -98 l14 -44 -550 -550 c-516 -515 -550 -552 -550 -585 0 -19 7 -41 15 -49
20 -20 65 -33 88 -25 29 11 1157 1142 1163 1167 3 13 -13 88 -38 171 l-43 148
-92 96 c-95 98 -110 109 -178 128 -22 6 -80 22 -130 36 -49 14 -101 25 -115
25 -20 0 -136 -111 -593 -572z"/>
<path d="M4437 4336 c-42 -18 -1087 -1061 -1087 -1085 0 -58 57 -104 105 -85
34 13 1073 1044 1084 1075 21 59 -44 120 -102 95z"/>
<path d="M1545 4000 c-552 -5 -561 -5 -615 -27 -153 -63 -250 -166 -280 -297
-11 -48 -15 -2112 -5 -2171 17 -92 69 -183 150 -261 57 -54 157 -109 215 -118
19 -3 381 -6 805 -6 l770 0 60 -51 c33 -28 76 -65 95 -83 20 -17 65 -56 100
-86 36 -30 67 -57 70 -60 3 -3 34 -30 70 -60 36 -30 70 -59 76 -65 6 -5 35
-30 64 -55 106 -89 205 -175 208 -181 6 -13 63 5 87 27 l25 23 0 295 0 295
328 1 c180 0 343 3 362 6 95 16 214 106 282 215 70 110 68 72 68 1069 l0 897
-24 26 c-32 35 -74 35 -110 2 l-26 -24 0 -428 c0 -235 0 -640 0 -900 0 -451
-1 -475 -20 -527 -25 -66 -82 -129 -141 -156 -41 -18 -67 -20 -435 -20 l-391
0 -27 -25 -26 -24 0 -247 0 -246 -47 38 c-27 21 -50 41 -53 44 -3 3 -102 89
-220 190 -118 102 -224 193 -235 203 -11 11 -34 30 -51 43 l-31 24 -801 0
c-715 0 -806 2 -851 17 -65 21 -119 67 -156 134 l-30 54 -3 1080 c-3 1216 -8
1131 74 1203 85 76 18 72 1247 72 986 0 1100 2 1122 16 30 19 39 45 30 85 -13
60 2 59 -611 62 -307 1 -811 0 -1119 -3z"/>
<path d="M2984 3379 c-28 -10 -52 -40 -58 -71 -2 -15 -7 -31 -10 -36 -3 -5 -7
-19 -10 -33 -3 -13 -10 -42 -16 -64 -6 -22 -12 -47 -14 -55 -5 -17 -45 -169
-50 -185 -16 -55 -26 -94 -30 -115 -3 -14 -11 -46 -17 -71 -15 -58 -7 -89 32
-134 52 -59 69 -58 369 20 74 19 144 37 155 39 102 22 200 52 220 68 36 28 35
89 -2 118 -27 21 -52 23 -118 6 -11 -3 -126 -32 -255 -65 -129 -33 -235 -59
-236 -58 -2 2 38 154 81 312 15 55 30 112 32 127 3 15 8 26 12 24 3 -2 6 8 7
22 0 15 4 42 8 60 12 59 -45 112 -100 91z"/>
<path d="M1987 3200 l-509 -5 -20 -25 c-25 -31 -18 -87 14 -112 21 -16 66 -18
611 -18 l588 0 25 27 c21 22 25 35 20 62 -9 56 -26 65 -129 71 -51 3 -321 3
-600 0z"/>
<path d="M1465 2774 c-14 -15 -25 -39 -25 -53 0 -32 25 -71 46 -71 8 0 13 -3
11 -7 -3 -5 178 -7 401 -6 224 2 470 3 548 3 137 0 142 1 169 26 23 22 27 31
22 62 -13 76 17 72 -599 72 l-549 0 -24 -26z"/>
<path d="M2387 2400 l-908 -5 -20 -25 c-25 -31 -19 -85 12 -114 22 -21 23 -21
1086 -19 962 3 1066 4 1088 19 14 9 28 27 31 40 7 26 -11 80 -30 92 -21 14
-357 17 -1259 12z"/>
<path d="M1994 2002 l-501 -2 -28 -26 c-23 -22 -27 -31 -22 -62 13 -76 -23
-72 651 -72 1531 -1 1525 -1 1551 16 30 19 39 45 30 85 -13 60 2 58 -616 61
-310 2 -790 2 -1065 0z"/>
</g>
</svg>
